<svg width="45" height="45" viewBox="0 0 45 45" fill="none" xmlns="http://www.w3.org/2000/svg">
<circle cx="22.5" cy="22.5" r="22.5" fill="#FAF8F0"/>
<path d="M22.5 0C10.08 0 0 10.08 0 22.5C0 34.92 10.08 45 22.5 45C34.92 45 45 34.92 45 22.5C45 10.08 34.92 0 22.5 0ZM22.5 9C26.8425 9 30.375 12.5325 30.375 16.875C30.375 21.2175 26.8425 24.75 22.5 24.75C18.1575 24.75 14.625 21.2175 14.625 16.875C14.625 12.5325 18.1575 9 22.5 9ZM22.5 40.5C17.9325 40.5 12.5325 38.655 8.685 34.02C12.6261 30.9279 17.4906 29.2473 22.5 29.2473C27.5094 29.2473 32.3739 30.9279 36.315 34.02C32.4675 38.655 27.0675 40.5 22.5 40.5Z" fill="#4F885A"/>
</svg>
