<svg id="Layer_1" data-name="Layer 1" xmlns="http://www.w3.org/2000/svg" xmlns:xlink="http://www.w3.org/1999/xlink" viewBox="0 0 700 700"><defs><style>.cls-1{fill:url(#linear-gradient);}.cls-2{fill:url(#linear-gradient-2);}.cls-3{fill:url(#linear-gradient-3);}.cls-4{fill:url(#linear-gradient-4);}.cls-5{fill:url(#linear-gradient-5);}.cls-6{fill:url(#linear-gradient-6);}.cls-7{fill:url(#linear-gradient-7);}.cls-8{fill:url(#linear-gradient-8);}.cls-9{fill:url(#linear-gradient-9);}.cls-10{fill:url(#linear-gradient-10);}.cls-11{fill:url(#linear-gradient-11);}.cls-12{fill:url(#linear-gradient-12);}.cls-13{fill:url(#linear-gradient-13);}.cls-14{fill:url(#linear-gradient-14);}.cls-15{fill:url(#linear-gradient-15);}.cls-16{opacity:0.3;}.cls-17{fill:url(#linear-gradient-16);}</style><linearGradient id="linear-gradient" x1="79.43" y1="236.9" x2="392.82" y2="236.9" gradientUnits="userSpaceOnUse"><stop offset="0" stop-color="#4e97b7"/><stop offset="0.27" stop-color="#4e94a2"/><stop offset="0.82" stop-color="#4f8b6d"/><stop offset="1" stop-color="#4f885a"/></linearGradient><linearGradient id="linear-gradient-2" x1="94.22" y1="237.79" x2="407.61" y2="237.79" xlink:href="#linear-gradient"/><linearGradient id="linear-gradient-3" x1="123.52" y1="254.29" x2="404.78" y2="254.29" xlink:href="#linear-gradient"/><linearGradient id="linear-gradient-4" x1="101.86" y1="422.43" x2="421.03" y2="422.43" xlink:href="#linear-gradient"/><linearGradient id="linear-gradient-5" x1="164.51" y1="310.41" x2="408.55" y2="310.41" xlink:href="#linear-gradient"/><linearGradient id="linear-gradient-6" x1="23.83" y1="654.36" x2="648.27" y2="654.36" xlink:href="#linear-gradient"/><linearGradient id="linear-gradient-7" x1="34.1" y1="628.1" x2="649.76" y2="628.1" xlink:href="#linear-gradient"/><linearGradient id="linear-gradient-8" x1="145.78" y1="173.54" x2="686.24" y2="173.54" xlink:href="#linear-gradient"/><linearGradient id="linear-gradient-9" x1="31.63" y1="609.11" x2="649.68" y2="609.11" xlink:href="#linear-gradient"/><linearGradient id="linear-gradient-10" x1="365.62" y1="291.34" x2="425.32" y2="291.34" xlink:href="#linear-gradient"/><linearGradient id="linear-gradient-11" x1="83.04" y1="221.55" x2="444.89" y2="221.55" xlink:href="#linear-gradient"/><linearGradient id="linear-gradient-12" x1="98.07" y1="221.21" x2="444.12" y2="221.21" xlink:href="#linear-gradient"/><linearGradient id="linear-gradient-13" x1="43.37" y1="435.4" x2="693.59" y2="435.4" xlink:href="#linear-gradient"/><linearGradient id="linear-gradient-14" x1="23.16" y1="375.05" x2="77.42" y2="375.05" xlink:href="#linear-gradient"/><linearGradient id="linear-gradient-15" x1="181.4" y1="150.25" x2="665.93" y2="150.25" xlink:href="#linear-gradient"/><linearGradient id="linear-gradient-16" x1="15.67" y1="365.91" x2="422.75" y2="365.91" xlink:href="#linear-gradient"/></defs><path class="cls-1" d="M89.51,142.46s-23.17,26.1.73,53.06c0,0-10.4,25.89-1.56,42.13s74.24,79.58,74.24,79.58,229.26,16.27,229.89,13.86-59.28-75.25-59.28-75.25L189.68,158.32Z"/><path class="cls-2" d="M104.3,143.35s-23.17,26.1.73,53.07c0,0-10.39,25.88-1.55,42.12s74.24,79.58,74.24,79.58S407,334.4,407.61,332s-59.29-75.25-59.29-75.25L204.47,159.21Z"/><path class="cls-3" d="M167.66,165.51c-45.76,4.11-53,39.45-35.18,68.71S181.61,290,181.61,290s40.49,39,83.14,35.26c52.86-4.64,61.76-13.51,94.94,11.09,28.49,21.13,45.09-13,45.09-13L307.7,194.82S200,162.6,167.66,165.51Z"/><path class="cls-4" d="M403.19,356.48c-36.83-43.19-86.52-12-130.71-70.59-20-26.52-73.36-49.41-85.91-44.72-16.15,6.05-29.85,44.48-32.57,61.51-2.54,15.85,2.72,44.55,1.79,47.1-6.69,18.36-9.07,19.53-32.54,44.07-11,11.49-25,23.2-20.53,29.84,8.8,13.05,21.1,13.17,28.51,15.65,4.55,8.53-2.46,18.28-7.61,26.47s-6.31,22.34,2.89,25.31c-7.92-1.56-11.1,10.82-6.64,17.55s12.28,11.92,13.09,19.95c1.31,13.1-7,21.69-7.12,34.85,0,4.84,2.48,9.32,5.37,13.2,19.69,26.38,48.15,32.51,80,24.15s59-28.47,86-47.37C338,524.83,382.34,495.5,402,449.7,420.18,407.26,433.16,391.61,403.19,356.48Z"/><path class="cls-5" d="M282.76,311.07c3.95,10.32,6.14,21.26,10.4,31.45,7.62,18.25,21.41,33.08,32.88,49.19s21.08,35.32,18.32,54.9c15.64,2.15,47-11.37,61.93-16.41,7.53-41-5.44-71.49-14.56-112.14s-30.37-79.45-63.52-104.7-77.59-49.27-116.81-35.2c-38.84,13.94-69.41,50-24.83,63C222.35,251.64,268.34,273.46,282.76,311.07Z"/><path class="cls-6" d="M619.86,664.81c-7.67,1.24-6,7.69-4,14.9H48.3a47.37,47.37,0,0,1,3.48-5.06c6.38-8.1-6.07-13.37-22-26.19s5.07-18.91,5.07-18.91H36c28.33-.12,589.56-2.3,609.82,3.2a1,1,0,0,1,.53.24C651.78,640.19,646.62,660.49,619.86,664.81Z"/><path class="cls-7" d="M649.09,602.27a2.65,2.65,0,0,0-2.05-.94l-610.24,2a2.7,2.7,0,0,0-2,.88,2.79,2.79,0,0,0-.71,2.08l2.22,27.63a2.72,2.72,0,0,0,2.29,2.48c.83.13,56.45,8.62,146.48,14,45.34,2.74,99.41,4.69,159.59,4.42,179.72-.83,265.56-3.57,299.12-17.59a2.76,2.76,0,0,0,1.66-2.15l4.27-30.67A2.73,2.73,0,0,0,649.09,602.27Z"/><path class="cls-8" d="M145.78,100.62s90.85-106.45,269.67-76,241,171.62,254.76,203.87,16,59.87,16,59.87L602.85,328,436.48,286.52Z"/><path class="cls-9" d="M57.36,590.13s-30.84-1.37-25,15.67,237.25,22.15,305,22.31,250.4-.62,293.29-11.78-.08-23.07-.08-23.07Z"/><path class="cls-10" d="M424.81,281.36l-11.54-9.67L396,257.19l-1.91,2.22-15.81,18.36-4.2,4.88-2.36,2.74-5.43,6.3-.65.76,26.11,25.61h0l5.93,5.81,1.66,1.63.86-4.26.15-.67a13.2,13.2,0,0,1,.53-1.83l.16-.4c3.48-9.06,17.2-27.54,22.66-34.46l1.64-2.09Zm-47.38,5.76,3.26-3.78,15.91-18.47,21.13,17.71c-4.39,5.71-15.5,20.51-20.48,30.77-.28.57-.55,1.14-.78,1.68l-4.75-4.65-2.54-2.5-16.07-15.75,2.08-2.41Z"/><path class="cls-11" d="M84.43,145.91l36.43-45.42A17.36,17.36,0,0,1,135,94c23,.82,87.85,8.18,170,60.87,103,66.1,139.9,122.32,139.9,122.32l-45.57,71.87s-99.93-101.26-166-144.51c-51.9-34-118.48-45.21-144.72-48.47A6.3,6.3,0,0,1,84.43,145.91Z"/><path class="cls-12" d="M98.66,142.75l26.08-32.7a15.26,15.26,0,0,1,13-5.72c21.6,1.47,84,10.44,166.48,63.36,103,66.1,139.9,122.32,139.9,122.32l-32.44,48.12s-86-85.55-150.66-130.9c-67.9-47.6-141.25-58.15-160.57-60.18A2.65,2.65,0,0,1,98.66,142.75Z"/><path class="cls-13" d="M680.48,401.17c9.77-47.28,14.6-94.86,4.51-124.71l-84.87,31.71s-24.27-53.5-104.66-55.4-134.35,95-89.35,179.19L261,471.88a74.37,74.37,0,0,0-45.23,35.45c-13.17,23.56-31.34,54-37.37,54.25-9.84.39-121.66-1.44-135-8.13,0,0,18,43.3,28.48,48.84s107.88,18.28,254.34,15.33,254.2,1.58,299.28-13.38l9.12-43.38a37.69,37.69,0,0,0,23.55-23.51c9.09-26.66,25.24-75.37,34.76-111.93A20.41,20.41,0,0,0,680.48,401.17Z"/><path class="cls-14" d="M65.19,548.59A9.94,9.94,0,0,1,56,542C47,516.67,15.7,421.46,24.8,340.25c10.61-94.59,43.71-138.74,43.71-138.74S38.42,277.26,40.61,355c1.7,60.24,25.61,143.66,36.26,178.1a12,12,0,0,1-11.68,15.54Z"/><path class="cls-15" d="M181.4,87.88c9.15-8.62,19.77-15.6,30.73-21.79,5.5-3.08,11.16-5.87,16.9-8.52,52.9-22.89,110.33-29.7,167.16-24.19C456.73,38.91,518.06,65.71,567,110.2a338.51,338.51,0,0,1,26.6,27.11c33.32,38.17,57.7,83.63,72.37,131.62-2.33-5.83-4.49-11.71-7.06-17.44-1.25-2.87-2.38-5.79-3.74-8.62l-3.94-8.52c-5.48-11.26-11.27-22.35-17.7-33.06s-13.28-21.14-20.69-31.16-15.31-19.65-23.67-28.87c-4.28-4.51-8.5-9.08-13-13.37l-3.31-3.27c-1.11-1.09-2.28-2.12-3.41-3.18-2.3-2.08-4.53-4.25-6.89-6.27-48.1-42.52-107.35-68.29-167.1-74.65-53.82-6-110.85-1.16-165.24,19.75q-8.66,3.56-17.07,7.68T196.71,77A126.85,126.85,0,0,0,181.4,87.88Z"/><g class="cls-16"><path class="cls-17" d="M419,457.89,258.14,493.82l-68.89,85.1a16.64,16.64,0,0,1-15.16,6L55.18,568.83l-.94-1.64C52.72,564.52,16.88,500.3,15.68,374,15.06,307.89,32.91,252.9,48,218.4,64.36,181,80.67,159.49,81.35,158.59l.2-.23c13.08-14.53,40.82-15.44,82.43-2.69a429.12,429.12,0,0,1,57.35,22.73l.34.18.3.24,200.78,157Z"/></g></svg>