<svg id="Layer_1" data-name="Layer 1" xmlns="http://www.w3.org/2000/svg" xmlns:xlink="http://www.w3.org/1999/xlink" viewBox="0 0 700 700"><defs><style>.cls-1{fill:url(#linear-gradient);}</style><linearGradient id="linear-gradient" x1="2.5" y1="351.97" x2="693.59" y2="351.97" gradientUnits="userSpaceOnUse"><stop offset="0" stop-color="#d55959"/><stop offset="0.14" stop-color="#ca5e61"/><stop offset="0.39" stop-color="#ad6c75"/><stop offset="0.71" stop-color="#7d8196"/><stop offset="1" stop-color="#4e97b7"/></linearGradient></defs><path class="cls-1" d="M687.4,17.38c-52-14.55-119.85-2.37-170,27.8l-4.18-4.4a1.52,1.52,0,0,0-1.69-.36L428.14,74.56,427,75l-9.85,9.36,4.84,5.1-6.27,6-4.85-5.1-8.49,8.06-2.22,2.11L248.34,244.64,27.3,227a10.93,10.93,0,0,0-8.37,3l-13,12.37A10.9,10.9,0,0,0,4.74,256.9L97.82,378.59l30.49,67.91q-5.5,5.47-11.1,11.61c-5.18,4.91.94,13.42,4,17.29-.56.35-1.13.66-1.69,1a5.1,5.1,0,0,0-2.35,3.91c-1.19,8,8.22,25.77,16.87,35.4,1.84,5.89,6.88,13.19,12.14,19.23,5.71,5.51,12.73,10.91,18.5,13,9.18,9.13,26.45,19.43,34.47,18.66a5.15,5.15,0,0,0,4-2.11c.4-.57.76-1.15,1.15-1.72,3.86,3.37,11.68,9.36,16.62,4.67q6.1-5,11.58-10L301,591.87l117.8,98.28a10.9,10.9,0,0,0,14.57-.54l12.91-12.5a10.91,10.91,0,0,0,3.31-8.23l-8-216.68L600,301.76l2.21-2.11,8.5-8.06-4.85-5.1,6.28-6,4.84,5.11,9.85-9.36.53-1.16,38.4-81.47a1.51,1.51,0,0,0-.28-1.7l-6.94-7.32c30-49.08,43-114.74,30.12-166l-.25-1Z"/></svg>