<svg id="Layer_1" data-name="Layer 1" xmlns="http://www.w3.org/2000/svg" xmlns:xlink="http://www.w3.org/1999/xlink" viewBox="0 0 700 700"><defs><style>.cls-1{fill:url(#linear-gradient);}.cls-2{fill:url(#linear-gradient-2);}.cls-3{fill:url(#linear-gradient-3);}.cls-4{fill:url(#linear-gradient-4);}.cls-5{fill:url(#linear-gradient-5);}.cls-6{fill:url(#linear-gradient-6);}.cls-7{fill:url(#linear-gradient-7);}.cls-8{fill:url(#linear-gradient-8);}.cls-9{fill:url(#linear-gradient-9);}</style><linearGradient id="linear-gradient" x1="15.31" y1="393.66" x2="535.85" y2="393.66" gradientUnits="userSpaceOnUse"><stop offset="0" stop-color="#ff824f"/><stop offset="0.16" stop-color="#fb9d59"/><stop offset="0.36" stop-color="#f6b763"/><stop offset="0.56" stop-color="#f3c96a"/><stop offset="0.77" stop-color="#f2d46f"/><stop offset="1" stop-color="#f1d870"/></linearGradient><linearGradient id="linear-gradient-2" x1="225.67" y1="214.26" x2="685.24" y2="214.26" xlink:href="#linear-gradient"/><linearGradient id="linear-gradient-3" x1="329.25" y1="389.35" x2="381.81" y2="389.35" xlink:href="#linear-gradient"/><linearGradient id="linear-gradient-4" x1="56.5" y1="147.4" x2="457.49" y2="147.4" xlink:href="#linear-gradient"/><linearGradient id="linear-gradient-5" x1="234.82" y1="113.35" x2="577.65" y2="113.35" xlink:href="#linear-gradient"/><linearGradient id="linear-gradient-6" x1="271.48" y1="160.54" x2="308.26" y2="160.54" xlink:href="#linear-gradient"/><linearGradient id="linear-gradient-7" x1="483.61" y1="313.93" x2="647.22" y2="313.93" xlink:href="#linear-gradient"/><linearGradient id="linear-gradient-8" x1="562.25" y1="455.64" x2="589.47" y2="455.64" xlink:href="#linear-gradient"/><linearGradient id="linear-gradient-9" x1="395.68" y1="467.59" x2="603.71" y2="467.59" xlink:href="#linear-gradient"/></defs><path class="cls-1" d="M343.18,415.54a17.54,17.54,0,0,0-4.13.79c-3.4,1.36-3.28-.41-3.57-2.46l-56.69,63.24c.07-2.46.08-4.92,0-7.39a10.59,10.59,0,0,1,1-1.58,17.41,17.41,0,0,1,4.72-4.2,4.82,4.82,0,0,0,1.93-1.55c2.07-2.82,1.46-8.9.8-12.73a32.15,32.15,0,0,0,6.72-7.32c5.3-8-1.26-8.65-5-15.76-3.22-6.14-3.94-5.32-2.63-10.4.19-.74.43-1.6.7-2.64-.29-1.08-.56-2.55-.83-4.14,3.09-2.54,6.16-5.06,9.18-7.56,67.05-55.5,118.52-104.3,180.79-164.31,20.24-19.51,57.71-58.79,59.66-63.86,2.73-7.06-163.66,90-268.81,163q-5.4,3.75-10.57,7.41c-1-.67-2.05-1.34-3.06-2s-1.74-1.31-2.59-2c-.19-.17-.4-.3-.6-.47-3.39-3-3-4.92-6.67-3.84-.52.16-1.12.37-1.82.66-2.56,1-2.74,3.06-5.55,4.19-4.69,1.87-12.62-2.79-18.24-1.26-2.42.66-11.72,7.78-11.55,10.54-.94.51-1.86,1.07-2.77,1.65,0-.26,0-.48,0-.64.32-2-.62-3.86-2.15-5.44a63.46,63.46,0,0,1,7.39-4.9,4.46,4.46,0,0,1,1.11-2.36l-10,5.94A36.46,36.46,0,0,0,189.85,339l69.48-56-102.44,58.7-.66,0A117.92,117.92,0,0,0,125,343.25l-.55.1-.9.16-.11,0-1.43.27a131.05,131.05,0,0,0-62.49,30.85l-.21-.07h-.05l-.91-.28-.44-.16-.3-.11-.3-.11-.39-.15-1.17-.52-.27-.14-.84-.43c-2.74-1.82-6.44-1.1-11,2.14A54.28,54.28,0,0,0,33,385.4c-.39.5-.77,1-1.13,1.49-2.89,3.92-11.8,17.07-6,22.53l2.28,2.75c.33.39.66.81,1,1.25l.24.32a132.17,132.17,0,0,0,4.43,126.91c-.14.24-.27.45-.4.63l0,.05-.37.56-.41.54,0,.07-.48.6-1,1.06a6,6,0,0,0-.73.8c-3.23,4.4.79,12.29,5.62,18.22,5.06,6.2,12.68,12.16,17.59,8.65L56,570.52l1-.55.37-.19.14-.07A134.92,134.92,0,0,0,69,579.22,131.12,131.12,0,0,0,114.92,601c2.44,1.61,3.56,5.08,3.81,6,.19,2.18,1.82,3.91,4.84,5.13a29.46,29.46,0,0,0,7.3,1.72c3.7.42,10.27.63,12.69-2.66a4.57,4.57,0,0,0,.71-1.41,11.8,11.8,0,0,1,1.11-1.82,10.36,10.36,0,0,1,3-2.81,63.26,63.26,0,0,0,21.66-2.23A134,134,0,0,0,189,598.07c2.28.67,4.93,3,6.28,4.63.87,1.32,2.72,2.7,6.6,2.12a24.71,24.71,0,0,0,6.53-2.1,19.92,19.92,0,0,0,7.35-5.34,5.28,5.28,0,0,0,1-4.87,15.71,15.71,0,0,1,.3-7.67,131,131,0,0,0,21.62-17l.24-.23c.65-.64,1.29-1.27,1.93-1.92l.36-.37.21-.23c.53-.54,1-1.08,1.57-1.63l.55-.59.52-.57,1.05-1.15.75-.85.61-.7.73-.84c.32-.37.63-.74.94-1.12l.55-.66.56-.67,1.2-1.52.39-.49.41-.52c.73-.94,1.46-1.89,2.13-2.83,4.86-2.72,10.83-2.65,12.44-2.58,3,.77,6.17-1.14,9.51-5.68a50.8,50.8,0,0,0,5.34-9.44,47.64,47.64,0,0,0,3.69-11.91c.69-4.69-.18-7.83-2.58-9.32a23.58,23.58,0,0,1-6.2-9.46,130.56,130.56,0,0,0,3.18-24c.47,1,1,2,1.58,3.06ZM265,351.63c4.22-1.85,7.91-3.38,11.62-4.88,8.47-3.4,17.19-6.63,33.3-13.08,16.55-6.63,1.91,19.12-19.78,48.9-2.38,3.27-4.86,6.59-7.38,9.92a14.83,14.83,0,0,0-1.9-4.12,5.41,5.41,0,0,0-1.94-1.44c-.16-.08-.31-.17-.48-.24a15,15,0,0,0-2.79-.88l-.53-.11c-1-.21-2.14-.39-3.28-.54l-.22,0c-4.08-.52-8.48-.82-11.34-1.9-.2-.08-.39-.16-.57-.25a5.94,5.94,0,0,1-.87-.47c-.15-.1-.3-.19-.43-.29a3.52,3.52,0,0,1-.72-.78c0-.07-.11-.12-.15-.18a3,3,0,0,1-.35-1.24,2.66,2.66,0,0,1,0-.39,4.28,4.28,0,0,1,.2-1.16,5.12,5.12,0,0,1,.21-.58,10.72,10.72,0,0,1,.7-1.4c.12-.2.22-.39.36-.61a24.76,24.76,0,0,1,1.78-2.37c1.09-1.29,2.35-2.84,3.62-4.44a83.12,83.12,0,0,0,6.23-8.7C271.51,358.32,267.5,354.37,265,351.63Zm-1.84,38.17c-2.43,2.39-5.8,5-8.11,7.77-1-1.44-2.05-2.87-3.13-4.27l-.79-1-.88-1.11-.68-.84c.83-1.66,1.7-3.18,2.54-4.63.33,1.25,1.4,2.11,3,2.69A39.79,39.79,0,0,0,263.19,389.8Zm7,36.19c-.35-.91-.7-1.82-1.07-2.73l4.78-3.85c.09.13.18.24.27.38C276.92,424,273.55,424.2,270.15,426Zm-15.76-75.4,5.73-4h0q5.08-3.53,10.32-7.11c98.91-67.62,236.77-148.81,234-141.56-2,5.08-16.85,19.91-37.09,39.41C401.44,295.94,357,341.49,294.68,397.68c-3,2.68-6,5.41-9.09,8.14-4.34,3.87-8.81,7.82-13.34,11.81l-4,3.55c-.57-1.34-1.16-2.66-1.78-4,5.73-6.12,11.7-12.6,17.76-19.3q4.26-4.71,8.52-9.5c39-43.78,76.23-90.48,54.58-81s-43.74,19.29-73.75,35.84c-3.41,1.88-6.91,3.84-10.53,5.9l-6.1,3.5c-7,4-14.32,8.39-22.16,13.17,4.24-2.05,7.95-3.82,11.37-5.44a10.29,10.29,0,0,1,1.36-.65c4.3-2,8-3.76,11.35-5.27.81,1.37,3.45,3.84,5.22,6.2-.24.5-.51,1-.76,1.52a7.57,7.57,0,0,1,1,4.73,126,126,0,0,1-9.12,12,13.9,13.9,0,0,0-2.84,4.64c-1.2-.14-2.35-.31-3.42-.51-4.92-.94-7.8-2.88-2.43-9.2.73-.87,1.55-1.86,2.39-2.91a55.3,55.3,0,0,0-8-3c-1.94-.6-4.15-1.21-6.59-1.83l-5.79,3.54-.19-.15-.08-.06,1.82-1.34,3.08-2.27Q243.23,358.4,254.39,350.59ZM230.72,349c2.77-1.29,9.18-3.9,12.95-6.8.33.39.87.92,1.35,1.41.27.28.42.49.76.8a42.66,42.66,0,0,0,4.95,3.66q-12,8.61-22.43,16.51l-.11,0s0,.08,0,.12l-3,2.31a135.78,135.78,0,0,0-11.47-7.55C214.89,357.12,218.6,354.69,230.72,349Zm-39.34-20.74-10,8.75c-3.79-.42-7.73-.11-9.61,2.45a4.48,4.48,0,0,0-.44.72,1,1,0,0,0-.08.11,20.86,20.86,0,0,1-2.54,2.81c-1.36-.22-2.73-.42-4.1-.6Z"/><path class="cls-2" d="M225.67,328.72a35.45,35.45,0,0,1,4.67.76C337.61,269.65,448.7,206,555.5,146.66c13-7.2,25.91-14.41,38.72-21.46L376.33,368.29a1,1,0,0,0,.8,1c1.56.56,4.72.31,5.54,1.39a6.66,6.66,0,0,1,.83,2.38L504.07,246.16,663.91,77.88l21.33-22.45Z"/><path class="cls-3" d="M380.21,384.43c-.85-1.62-.94-1.14-.44-3-.22-.81-.4-2.35-.69-3.69a5.8,5.8,0,0,0-.72-2.09c-1-1.3-6.07-.29-5.37-2.33a3.66,3.66,0,0,1,.69-1.08,25.12,25.12,0,0,0,2.26-3c.07-.12,0-.28-.05-.44-.25-.7-1.4-1.69-1.56-2.09-1-1-2.07-1.42-3-2.26s-.66-1.25-1.95-.73c-.59.23-.63.7-1.27,1-1.08.43-2.9-.64-4.19-.29-.56.15-2.69,1.79-2.66,2.42a20,20,0,0,0-3.69,2.84c-.32.3-1.12,0-1.74-.21s-1.32-.77-2-.11-1.35,2.2-2.05,2.79c-.52.2-1,.44-1.56.62-.35.12-.65,0-1,.11s-.39-.1-.75,0c-.16,0-.83.06-.94-.08s-.79,0-.93-.07a38.56,38.56,0,0,0-2.5,4.32c-.24.43-1.82.88-2.29,1.06-1,.4-4.45,1.92-4.58,2.89-.14,1.13-.73,2.56-.7,3.15-1,2.55-3.63,4.17-4.34,6.12-.66,1.79,1.38,2.85.42,4.06-1.94,2.42-4.69,3.76-2.5,6.58.66.86,2.06,1.77,1.64,3s-.82,2.1-.29,3.44c.86,1.05,2.66,1.76,4.2,2.33,1.26.46,2.35.84,2.49,1.19,0,0,0,.08,0,.12.77,2.14-.26,4.8,3.32,3.37a15,15,0,0,1,3.56-.68,6.17,6.17,0,0,1,2.39.11c2.88,1.23,1.92,2.58,5.52.21a26.23,26.23,0,0,1,4.68-2.63c.86-.34,2.07.68,2.73.42,2-1.31,3.76-3.47,5.7-4.24s4.12.78,3.77-1.51c-.39-2.55-1.3-4.58,1.56-5.91,2.15-1,4.15-1.71,5.38-2.76-4-6.29,1.83-5,4.61-9.23C382.57,386.2,381.07,386.06,380.21,384.43Zm-6.66-6.13a4,4,0,0,0-1.36,1.37c-.24.55-.27,1.27-.52,1.68s-2.48.6-2.84.39c-3,1.19-1.95,1.86-3.71,4.28-1.13,1.55-4,1-4.85,2.51-2,3.72.31,4.34-4.39,5.8-1.48.46-1.31,1.26-2.45,2.19-.88.44-3.2.87-3.81,1.57l-.05,0s0,.05,0,.07c-2.06,2.76.76,2.54-3.51,3.92l-.25.08c-.57.18-2.08.55-2.48,1.11a.87.87,0,0,1-.9-.29c-.44-.52-.29-1.67-.7-2.68-.09-.23-.72-.47-1.53-.77.83-1.71,1.88-3.52,3.45-4,.85-.27,2.11.35,2.93.31a6,6,0,0,0,3.14-3.82c.23-.69,1.46-4.21,2.65-3.22.27.22,1.36,1.2,1.69,1s1.93-1.73,1.9-2a7.4,7.4,0,0,1,3.68-2.71c2.74-1.08.32-1.62,1.28-3.56.52-1,1.82-.47,2.29-1.48a5.84,5.84,0,0,0,1.59-2.27c.78-1.66,3.09-.66,4.33-2.65.46-.75.73-1.68,1.19-2.44a6.9,6.9,0,0,1,1.75.37,1.38,1.38,0,0,1,.57.28,1.22,1.22,0,0,1,.1.23c.54,1,.73,3.26,1,4.21C373.63,378,373.59,378.16,373.55,378.3Z"/><path class="cls-4" d="M271.82,167.43l-51.11,19q1.17-2.05,2.22-4.19a5.89,5.89,0,0,1,1-.61,11.2,11.2,0,0,1,3.94-1,3.07,3.07,0,0,0,1.56-.3c2-1,3.48-4.62,4.25-7a20.54,20.54,0,0,0,6-2.15c5.41-3,1.87-5.3,1.87-10.45,0-4.45-.65-4.2,1.61-6.7l1.19-1.28c.15-.71.44-1.62.76-2.61l7.48-1.56c54.68-11.52,98.51-23.9,151.82-39.42,17.33-5,50.35-16.18,53-18.48C461.07,87.51,337.52,93,256,103.07q-4.2.53-8.23,1.06c-.38-.69-.76-1.37-1.12-2.07s-.6-1.27-.87-1.93c-.06-.15-.14-.29-.2-.44-1-2.74-.27-3.71-2.65-4.17q-.51-.1-1.23-.18c-1.76-.18-2.47.93-4.41.73-3.22-.33-6.34-5.35-10-6.16-1.57-.35-9,.92-9.71,2.54-.68,0-1.38.06-2.07.11l.17-.37a4.09,4.09,0,0,0,.4-3.73,39.35,39.35,0,0,1,5.67-.58,2.87,2.87,0,0,1,1.34-1l-7.46.4a23.47,23.47,0,0,0-4.2-5.88l56.2-11.07-75.76,2.78-.35-.22a75.6,75.6,0,0,0-18.23-8.42l-.35-.11-.55-.18-.07,0-.89-.27a84.15,84.15,0,0,0-44.74-1.13l-.1-.1,0,0-.43-.43c-.08-.07-.14-.15-.21-.22l-.13-.15-.14-.16-.18-.2-.51-.65-.11-.15-.35-.5c-1-1.85-3.33-2.55-6.88-2.07A34.85,34.85,0,0,0,108.4,61c-.37.16-.73.33-1.09.51-2.81,1.36-11.8,6.18-10.12,11l.48,2.24c.07.32.13.66.19,1l0,.26a84.82,84.82,0,0,0-35.38,73.46c-.15.09-.29.18-.41.24l0,0-.38.21-.4.18,0,0-.46.19-.86.32a3.35,3.35,0,0,0-.65.24c-3.15,1.53-3.23,7.22-2.25,12,1,5,3.58,10.7,7.42,10.17l1.69-.06.73,0h.36A86.63,86.63,0,0,0,71,181.85a84.2,84.2,0,0,0,19.63,26.07,7.38,7.38,0,0,1,.38,4.54c-.54,1.29-.13,2.76,1.22,4.36A18.23,18.23,0,0,0,95.83,220c2,1.35,5.64,3.43,8,2.28a3.06,3.06,0,0,0,.83-.59,8.24,8.24,0,0,1,1.17-.7,6.69,6.69,0,0,1,2.57-.69,40.76,40.76,0,0,0,13,5.2,85.51,85.51,0,0,0,12.17,2.92,10.26,10.26,0,0,1,2.19,4.51c.1,1,.74,2.35,3.11,3.17a15.54,15.54,0,0,0,4.35.76A12.75,12.75,0,0,0,149,236a3.39,3.39,0,0,0,2-2.47,10.14,10.14,0,0,1,2.45-4.27,84,84,0,0,0,17.36-3.18l.2-.06,1.67-.52.32-.1.19-.06,1.38-.47.49-.17.46-.17.94-.34.68-.26.56-.21.66-.26.87-.36.51-.21.52-.21,1.13-.5.37-.17.39-.17c.7-.32,1.4-.64,2.06-1A16.22,16.22,0,0,1,192,223.1c1.46,1.33,3.85,1.19,7.1-.38a32.86,32.86,0,0,0,5.85-3.78,30.83,30.83,0,0,0,5.66-5.67c1.79-2.46,2.23-4.5,1.32-6.07a15,15,0,0,1-.71-7.22,85.07,85.07,0,0,0,9-12.67c0,.69,0,1.41,0,2.21l55.48-18.84a10.89,10.89,0,0,0-2.58-.78C270.78,169.65,271.37,168.68,271.82,167.43ZM250.36,111c2.95.21,5.5.43,8.05.69,5.84.6,11.76,1.37,22.84,2.51,11.39,1.17-4.62,11.44-25.84,21.89-2.33,1.15-4.73,2.3-7.16,3.44a9.36,9.36,0,0,0,.15-2.91,3.53,3.53,0,0,0-.67-1.4l-.2-.28a11,11,0,0,0-1.32-1.33l-.27-.22q-.8-.66-1.71-1.29l-.11-.08c-2.17-1.52-4.58-3-5.88-4.47a3.4,3.4,0,0,1-.25-.31,4.14,4.14,0,0,1-.36-.53c0-.1-.11-.19-.15-.29a2,2,0,0,1-.18-.66.8.8,0,0,1,0-.15,1.75,1.75,0,0,1,.17-.8,1.59,1.59,0,0,1,.13-.22,3.43,3.43,0,0,1,.46-.6l.29-.27a7.27,7.27,0,0,1,.82-.58l.38-.24a16.82,16.82,0,0,1,1.73-.82c1-.4,2.18-.91,3.38-1.44a54.72,54.72,0,0,0,6.14-3.09C252,116.76,250.94,113.31,250.36,111Zm-12.44,21.14c-2.1.64-4.79,1.1-6.94,2-.15-1.12-.31-2.24-.5-3.36,0-.28-.09-.55-.14-.83s-.11-.6-.17-.89-.09-.45-.13-.68c1-.69,1.91-1.3,2.82-1.88a2.73,2.73,0,0,0,.92,2.44A25.06,25.06,0,0,0,237.92,132.16Zm-6.86,22.65h0c.07-.62.15-1.24.21-1.86l3.87-.77c0,.11,0,.19.05.3C235.5,155.71,233.53,154.81,231.06,154.81Zm13.56-47.56,4.44-.55h0c2.63-.33,5.29-.64,8-1,76.41-8.91,179-13.9,175.26-10.61-2.62,2.3-15.52,6.28-32.85,11.33-54.94,13.63-93.79,26.26-146,39.58-2.49.64-5,1.28-7.6,1.92-3.62.9-7.34,1.82-11.11,2.73l-3.37.81c.08-.93.15-1.86.19-2.79,5.09-1.77,10.42-3.67,15.86-5.67l7.68-2.85c35.23-13.25,70.34-28.68,55.22-29.79a518.17,518.17,0,0,0-52.62-1.64q-3.75.08-7.75.21l-4.51.17c-5.16.21-10.64.49-16.53.87,3,.1,5.66.2,8.09.3a6.82,6.82,0,0,1,1,0c3.05.13,5.68.26,8,.39.05,1,.82,3.21,1.12,5.08-.29.22-.59.43-.89.64a4.74,4.74,0,0,1-.85,3,76.51,76.51,0,0,1-8.77,4.11,9,9,0,0,0-3,1.79c-.64-.44-1.24-.87-1.79-1.31-2.52-2-3.57-4,1.37-6l2.22-.94a35.07,35.07,0,0,0-3.62-4.1c-.92-.92-2-1.93-3.2-3l-4.35.28-.06-.14,0-.06,1.44-.21,2.43-.37C233.3,108.75,238.85,108,244.62,107.25Zm-13-8c2,.09,6.39.52,9.39,0,.08.33.22.79.35,1.21a5.59,5.59,0,0,0,.2.68,26.58,26.58,0,0,0,1.72,3.56c-6.28.86-12.19,1.76-17.69,2.69l0,0s0,0-.05.07l-2.41.41a82.59,82.59,0,0,0-4.27-7.71C220.2,99.17,223,98.89,231.63,99.29ZM215.46,75.75l-8.29,2c-2-1.37-4.36-2.37-6.19-1.48a4.48,4.48,0,0,0-.47.28l-.07,0a13.65,13.65,0,0,1-2.29.84c-.71-.54-1.45-1-2.18-1.57Z"/><path class="cls-5" d="M234.82,86.24a22.72,22.72,0,0,1,2.43,1.83c78.84-2,161-5,239.41-6.84,9.52-.22,19-.45,28.42-.64L308.64,153.72a.67.67,0,0,0,.16.82c.72.78,2.59,1.58,2.73,2.44a4.51,4.51,0,0,1-.24,1.6l106.43-36.15,141.1-47.92,18.83-6.4Z"/><path class="cls-6" d="M307,150c-.27-.71,0-.9-.89-1-.41-.05-.57.21-1,.16-.74-.07-1.45-1.23-2.29-1.41-.36-.08-2.06.21-2.23.58a13,13,0,0,0-2.95.51c-.27.08-.64-.33-.93-.64s-.52-.83-1.1-.66-1.43.85-2,1c-.36,0-.72,0-1.08-.11s-.37-.19-.6-.24-.2-.17-.43-.23-.49-.22-.51-.32-.46-.23-.51-.33A26.54,26.54,0,0,0,287.7,149c-.27.18-1.3,0-1.62-.07-.69-.07-3.11-.24-3.46.27s-1.18,1.23-1.34,1.58C280,152,278,152.09,277,153s-.07,2-1,2.43c-1.83.8-3.79.74-3.39,3,.12.68.65,1.63.05,2.18a2.69,2.69,0,0,0-1.19,1.87,6.73,6.73,0,0,0,1.69,2.58c.57.63,1.08,1.17,1.06,1.41a.29.29,0,0,1,0,.09c-.2,1.44-1.58,2.64.89,2.9a10.13,10.13,0,0,1,2.22.68,4,4,0,0,1,1.33.77c1.27,1.57.32,2,3.07,1.77a17.31,17.31,0,0,1,3.45-.09c.59.06,1,1,1.43,1.05,1.5-.16,3.17-.85,4.5-.71s2.11,1.67,2.6.27c.53-1.57.62-3,2.65-2.89a17.51,17.51,0,0,0,3.88,0c-.42-4.79,2.53-2.31,5.38-3.88,1.24-.69.42-1.22.42-2.4s-.19-.93.65-1.83c.12-.53.47-1.46.71-2.31a3.78,3.78,0,0,0,.21-1.4c-.17-1-3.36-2-2.36-2.93a2.63,2.63,0,0,1,.72-.41,18.14,18.14,0,0,0,2.19-1c.07,0,.08-.16.1-.26a13,13,0,0,0-.26-1.66C307.72,151.36,307.23,150.79,307,150ZM305,155.65a15.15,15.15,0,0,1-.7,2.69l-.22.24a2.57,2.57,0,0,0-1.19.37c-.3.24-.53.64-.8.8s-1.58-.4-1.72-.63c-2.09-.23-1.66.48-3.39,1.33-1.11.55-2.6-.62-3.51,0-2.27,1.5-1.12,2.56-4.22,2-1-.18-1.13.33-2.05.52-.63,0-2.08-.47-2.63-.25h0l0,0c-2,1-.32,1.67-3.16,1.18l-.17,0a3.92,3.92,0,0,0-1.74-.1.6.6,0,0,1-.43-.44c-.08-.43.34-1,.41-1.73,0-.16-.27-.49-.64-.9,1-.72,2.12-1.44,3.16-1.24.56.1,1.09.83,1.57,1.05a3.84,3.84,0,0,0,2.92-1.23c.34-.32,2.09-2,2.47-1,.09.21.42,1.08.65,1.09a4,4,0,0,0,1.69-.59,4.81,4.81,0,0,1,2.9-.44c1.88.2.67-.82,1.79-1.64.61-.44,1.18.27,1.74-.16a3.81,3.81,0,0,0,1.59-.81c.94-.71,1.95.55,3.25-.22.49-.29.91-.73,1.4-1a4.57,4.57,0,0,1,.89.73c.09.11.22.22.24.33A.81.81,0,0,1,305,155.65Z"/><path class="cls-7" d="M483.61,464.84a23.65,23.65,0,0,1,2.82-1.12C525.92,395.46,566.27,323.85,605.66,256c4.77-8.22,9.55-16.46,14.29-24.56L579.71,437.14a.65.65,0,0,0,.77.29c1-.2,2.71-1.38,3.51-1.05a4.46,4.46,0,0,1,1.25,1L610,327.78l32.84-145.36L647.22,163Z"/><path class="cls-8" d="M589.47,453c-4.3-2.14-.64-3.36-.5-6.6.07-1.42-.81-1-1.82-1.62s-.89-.32-1.23-1.51c-.38-.37-1-1.16-1.59-1.81a3.7,3.7,0,0,0-1.08-.91c-1-.4-3.45,1.83-3.73.48a2.36,2.36,0,0,1,0-.83,16.3,16.3,0,0,0,.26-2.41c0-.08-.09-.15-.18-.22-.36-.3-1.33-.47-1.54-.64-.87-.22-1.61-.1-2.41-.26s-.78-.47-1.32.24c-.24.32-.11.6-.38.95-.46.59-1.81.6-2.41,1.22-.26.27-.9,1.87-.67,2.21a12.76,12.76,0,0,0-1.1,2.77c-.08.28-.61.38-1,.46s-1,0-1.14.6,0,1.66-.22,2.21c-.22.29-.42.59-.65.86s-.36.22-.53.39-.25.08-.42.25-.44.3-.54.26-.43.28-.54.27a25.46,25.46,0,0,0,0,3.2c0,.32-.71,1.09-.91,1.34-.42.55-1.82,2.53-1.57,3.1s.43,1.65.64,2c.31,1.72-.63,3.49-.38,4.8s1.7,1.12,1.56,2.1c-.27,2-1.34,3.61.79,4.46.65.25,1.72.29,1.88,1.09a2.69,2.69,0,0,0,1,2,6.62,6.62,0,0,0,3.08-.09,4.1,4.1,0,0,1,1.76-.17l.06.06c1.13.93,1.43,2.73,2.94.77a9.48,9.48,0,0,1,1.74-1.55,4.17,4.17,0,0,1,1.36-.73c2-.26,1.9.8,3.11-1.69a16.44,16.44,0,0,1,1.72-3c.36-.48,1.36-.31,1.64-.67.64-1.37.93-3.15,1.75-4.21s2.53-.93,1.58-2.07-2.22-2.1-1.08-3.77A16.82,16.82,0,0,0,589.47,453ZM580,447c-1.28,1.66-.46,1.67-.64,3.59-.11,1.23-1.88,1.89-1.85,3,.09,2.72,1.6,2.29-.51,4.64-.67.73-.31,1.13-.63,2-.34.53-1.48,1.53-1.59,2.12v0s0,0,0,.06c-.23,2.2,1.25,1.15-.65,3.31l-.11.13c-.26.28-1,1-1,1.42a.55.55,0,0,1-.6.14c-.41-.14-.71-.83-1.26-1.25-.13-.1-.56,0-1.1.08-.1-1.21-.12-2.56.58-3.34.38-.42,1.29-.5,1.72-.8a3.86,3.86,0,0,0,.48-3.13c-.1-.45-.58-2.8.4-2.65.23,0,1.15.22,1.27,0a3.86,3.86,0,0,0,.38-1.75,4.86,4.86,0,0,1,1.14-2.71c1.16-1.49-.35-1-.46-2.38-.06-.74.84-.86.77-1.57a3.79,3.79,0,0,0,.14-1.77c-.12-1.17,1.49-1.38,1.51-2.89,0-.56-.15-1.16-.15-1.74a5.4,5.4,0,0,1,1.09-.37,1,1,0,0,1,.41,0l.13.09a15,15,0,0,1,1.92,2c0,.13.07.23.09.32a2.49,2.49,0,0,0-.29,1.2c0,.38.26.79.26,1.1S580.26,447,580,447Z"/><path class="cls-9" d="M579.3,551.81c-1.16-2.82-2.67-4.26-4.48-4.3a15,15,0,0,1-6.53-3.17,84.31,84.31,0,0,0-6.13-14.26c.58.38,1.19.77,1.88,1.17L577,474.09a12,12,0,0,0-2,1.79c-1.43,1.87-1.94.86-2.78-.18l-10.47,53.52c-.77-1.38-1.57-2.74-2.42-4.08a5.93,5.93,0,0,1,0-1.19,11.28,11.28,0,0,1,1.21-3.87,3,3,0,0,0,.56-1.49c.22-2.23-2.12-5.38-3.75-7.28a20.35,20.35,0,0,0,1.31-6.24c.27-6.18-3.54-4.36-7.93-7.06-3.8-2.33-3.93-1.64-4.88-4.87-.13-.47-.29-1-.47-1.68-.52-.51-1.15-1.23-1.83-2q1.31-3.62,2.58-7.19c18.73-52.64,31.07-96.48,45.69-150,4.74-17.42,12.5-51.39,11.91-54.84C602.86,272.57,543,380.78,509,455.61c-1.17,2.57-2.3,5.08-3.4,7.57-.79,0-1.57-.07-2.35-.13s-1.39-.15-2.1-.26c-.16,0-.32,0-.48-.06-2.87-.56-3.3-1.71-4.94.08a10.17,10.17,0,0,0-.79,1c-1.08,1.4-.51,2.59-1.69,4.13-2,2.57-7.87,2.61-10.47,5.31-1.11,1.15-3.9,8.14-2.91,9.6-.34.59-.66,1.2-1,1.83l-.23-.35a4.07,4.07,0,0,0-3-2.29,39.78,39.78,0,0,1,2.47-5.13,2.85,2.85,0,0,1-.17-1.67l-3.56,6.56a23.77,23.77,0,0,0-7.21.52l19.92-53.71-37.2,66.06-.38.18A76.12,76.12,0,0,0,432.86,506l-.27.24-.44.38-.06.05-.69.62a84.17,84.17,0,0,0-24.33,37.56l-.14,0h0l-.59.14-.3.06-.2,0-.2,0-.27,0-.81.1h-.19l-.61,0c-2.11-.1-3.92,1.51-5.36,4.79a34.58,34.58,0,0,0-2.37,9.33c-.05.41-.09.8-.13,1.2-.3,3.11-.9,13.29,4.11,14.39l2.16.76,1,.36.25.1a84.86,84.86,0,0,0,44.16,68.54c0,.17,0,.33,0,.47v0l0,.43-.05.44v.05c0,.17-.05.33-.07.49l-.18.9a3.43,3.43,0,0,0-.14.68c-.34,3.49,4.47,6.52,9.09,8.2,4.83,1.76,11,2.54,12.55-1l.83-1.47q.17-.32.36-.63l.14-.23.05-.09a86.44,86.44,0,0,0,9.48,1.46A84.08,84.08,0,0,0,512,651.39a7.27,7.27,0,0,1,4.06,2.05c.83,1.14,2.29,1.55,4.36,1.23a18.34,18.34,0,0,0,4.59-1.45c2.18-1,5.87-3,6.12-5.63a2.68,2.68,0,0,0-.07-1,7.93,7.93,0,0,1,0-1.36,6.69,6.69,0,0,1,.75-2.56,40.64,40.64,0,0,0,11.21-8.34,87,87,0,0,0,8.85-8.85,10.24,10.24,0,0,1,5,.49c.92.44,2.39.59,4.34-1a15.84,15.84,0,0,0,2.91-3.31,12.67,12.67,0,0,0,2.3-5.36,3.37,3.37,0,0,0-1.05-3,10.21,10.21,0,0,1-2.35-4.33,84,84,0,0,0,6.35-16.46l.05-.21c.15-.56.3-1.12.44-1.69,0-.1.05-.21.07-.32l0-.19.33-1.42c0-.17.07-.34.1-.51l.1-.48.21-1c0-.24.09-.48.13-.72l.11-.58.12-.7c.06-.31.1-.62.15-.93l.09-.55c0-.18.06-.37.08-.55.06-.41.12-.82.17-1.23l0-.4.06-.42c.09-.76.18-1.53.24-2.27a16.15,16.15,0,0,1,6-5.51c1.89-.55,3-2.66,3.37-6.26a32.38,32.38,0,0,0-.16-7A30.39,30.39,0,0,0,579.3,551.81Zm-60.65-84.2c0-1.51-3.54-2.37-5.8-3.08,1.71-2.4,3.24-4.46,4.8-6.5,3.55-4.67,7.3-9.31,14.06-18.17,6.95-9.09,7.34,9.92,5.17,33.48-.24,2.58-.51,5.23-.8,7.89a9.45,9.45,0,0,0-2.41-1.64,3.52,3.52,0,0,0-1.55-.16l-.34,0a10.56,10.56,0,0,0-1.82.43l-.33.12c-.65.22-1.31.49-2,.78l-.13.05c-2.42,1.06-5,2.34-6.88,2.69l-.39.05a4.7,4.7,0,0,1-.64,0,1.77,1.77,0,0,1-.33,0,2.3,2.3,0,0,1-.66-.19l-.14-.05a2,2,0,0,1-.6-.57c0-.06-.07-.15-.11-.22a3.28,3.28,0,0,1-.27-.71c0-.12-.06-.25-.08-.38a6.24,6.24,0,0,1-.07-1c0-.15,0-.29,0-.45a14.53,14.53,0,0,1,.2-1.89c.18-1.07.36-2.35.53-3.65A52.78,52.78,0,0,0,518.65,467.61Zm.68,24.21-.77-.31-.86-.33-.64-.24c-.09-1.18-.11-2.31-.13-3.38a2.72,2.72,0,0,0,2.56.48,25.48,25.48,0,0,0,4.89-1.85c-.55,2.12-1.56,4.65-1.92,7C521.43,492.69,520.39,492.24,519.33,491.82Zm19.3,10.9L540,499l.27.11c2.93,1.41,1.13,2.63-.16,4.74h0C539.62,503.49,539.13,503.1,538.63,502.72Zm-32-35.26c.6-1.34,1.23-2.71,1.85-4.08h0c1.09-2.41,2.21-4.84,3.35-7.31,32.32-69.81,81.66-159.91,82.5-155,.59,3.44-2.75,16.51-7.5,33.93-17.07,54-26.6,93.69-42.5,145.18-.76,2.45-1.55,5-2.34,7.47-1.12,3.57-2.29,7.21-3.47,10.91-.36,1.09-.71,2.19-1.07,3.29q-1.12-.83-2.28-1.62c1.14-5.26,2.31-10.8,3.44-16.49q.81-4,1.58-8c7.11-37,12.29-75,3.45-62.65a520.79,520.79,0,0,0-28.89,44c-1.26,2.15-2.54,4.39-3.86,6.71-.73,1.28-1.47,2.6-2.21,3.94-2.52,4.51-5.15,9.33-7.9,14.55,1.66-2.53,3.13-4.72,4.48-6.75a8.71,8.71,0,0,1,.54-.8c1.7-2.53,3.19-4.71,4.53-6.64.89.49,3.16,1,4.91,1.7,0,.36.06.73.09,1.1a4.74,4.74,0,0,1,2.09,2.28,76.11,76.11,0,0,1-1.08,9.62,9,9,0,0,0,0,3.5c-.71.31-1.4.6-2.06.84-3,1.1-5.25,1-4.36-4.28.12-.71.24-1.53.36-2.39a36.53,36.53,0,0,0-5.39.95c-1.26.31-2.69.7-4.24,1.16-.66,1.26-1.34,2.55-2,3.86l-.16,0h-.06c.19-.45.37-.9.56-1.34.32-.76.63-1.5,1-2.26C502,477.89,504.25,472.76,506.64,467.46Zm-13.58,6.91c1.1-1.62,3.78-5.17,4.91-8,.31.11.78.23,1.21.34.24.06.39.13.68.19a28,28,0,0,0,3.93.39Q500,476,496.85,483.76l-.07,0,0,.08c-.31.76-.61,1.52-.91,2.27a86.23,86.23,0,0,0-8.8-.39C487,484.06,488.24,481.5,493.06,474.37Zm-28.52,1.5L461.91,484c-2.23,1-4.29,2.48-4.49,4.51a3.25,3.25,0,0,0,0,.54.22.22,0,0,1,0,.08,12.86,12.86,0,0,1-.47,2.39c-.83.33-1.65.69-2.47,1Z"/></svg>