<svg xmlns="http://www.w3.org/2000/svg" xmlns:xlink="http://www.w3.org/1999/xlink" viewBox="0 0 417.23 120.77"><defs><style>.cls-1{fill:none;}.cls-2{isolation:isolate;}.cls-3{clip-path:url(#clip-path);}.cls-4{fill:url(#linear-gradient);}.cls-5{fill:url(#linear-gradient-2);}.cls-6{fill:#303030;}.cls-7{mix-blend-mode:multiply;opacity:0.84;}.cls-8,.cls-9{stroke:#000;stroke-miterlimit:10;}.cls-9{fill:#fff;}</style><clipPath id="clip-path"><circle class="cls-1" cx="60.38" cy="60.38" r="60.38"/></clipPath><linearGradient id="linear-gradient" x1="1.02" y1="48.29" x2="223.67" y2="48.29" gradientUnits="userSpaceOnUse"><stop offset="0" stop-color="#ee885b"/><stop offset="0.49" stop-color="#5c865e"/><stop offset="0.87" stop-color="#3b526d"/></linearGradient><linearGradient id="linear-gradient-2" x1="78.51" y1="60.38" x2="191.61" y2="60.38" gradientUnits="userSpaceOnUse"><stop offset="0" stop-color="#ee885b"/><stop offset="1"/></linearGradient></defs><g class="cls-2"><g id="Layer_1" data-name="Layer 1"><g class="cls-3"><path class="cls-4" d="M4.31,122.34H1V-25.76H4.31Zm7.08-148.1H8.1v148.1h3.29Zm7.08,0h-3.3v148.1h3.3Zm7.07,0H22.25v148.1h3.29Zm7.08,0h-3.3v148.1h3.3Zm7.08,0H36.4v148.1h3.3Zm7.07,0H43.48v148.1h3.29Zm7.08,0h-3.3v148.1h3.3Zm7.07,0H57.63v148.1h3.29Zm7.08,0H64.71v148.1H68Zm7.08,0h-3.3v148.1h3.3Zm7.07,0H78.86v148.1h3.29Zm7.08,0h-3.3v148.1h3.3Zm7.07,0H93v148.1H96.3Zm7.08,0h-3.29v148.1h3.29Zm7.08,0h-3.3v148.1h3.3Zm7.07,0h-3.29v148.1h3.29Zm7.08,0h-3.3v148.1h3.3Zm7.07,0h-3.29v148.1h3.29Zm7.08,0h-3.29v148.1h3.29Zm7.08,0h-3.3v148.1h3.3Zm7.07,0h-3.29v148.1h3.29Zm7.08,0H156.7v148.1H160Zm7.08,0h-3.3v148.1h3.3Zm7.07,0h-3.29v148.1h3.29Zm7.08,0h-3.3v148.1h3.3Zm7.07,0H185v148.1h3.29Zm7.08,0h-3.29v148.1h3.29Zm7.08,0h-3.3v148.1h3.3Zm7.07,0h-3.29v148.1h3.29Zm7.08,0h-3.3v148.1h3.3Zm7.07,0h-3.29v148.1h3.29Z"/></g><path class="cls-5" d="M135.06,116.52c-31.18,0-56.55-25.18-56.55-56.14S103.88,4.24,135.06,4.24s56.55,25.19,56.55,56.14S166.24,116.52,135.06,116.52Z"/><path class="cls-6" d="M135.06,6.24c30.08,0,54.55,24.29,54.55,54.14s-24.47,54.14-54.55,54.14S80.51,90.24,80.51,60.38,105,6.24,135.06,6.24m0-4a58.14,58.14,0,1,0,58.55,58.14A58.34,58.34,0,0,0,135.06,2.24Z"/><g class="cls-7"><path class="cls-8" d="M40.48,85.31H34.62l-8.85-8.76V50.21l8.85-8.75h5.86Zm2.33-35.1V41.46H58.49l8.82,8.75V59H52.6V50.21Zm0,35.1V76.55H52.6V70.14H67.31v6.41l-8.82,8.76Z"/><path class="cls-8" d="M88.07,76.39H93.6v8.92H82.28l-9-8.76V50.21l9-8.75H93.6v8.89H88.07Zm13.48-26H95.93V41.46h11.41l8.92,8.75V76.55l-8.92,8.76H95.93V76.39h5.62Z"/><path class="cls-8" d="M150.35,85.31V68.89H131.24l-8.85-8.79V50.21l8.85-8.75h5V57h20.31l8.55,8.79V76.55l-8.82,8.76Zm-28-13.15H137.1v5.22H148v7.93h-18.2l-7.42-8.76Zm16.17-22.81V41.46h17.68l7.65,7.63v4.66H150.35v-4.4Z"/><path class="cls-8" d="M172.21,85.31V45.52L186,68.42V85.31Zm0-43.85h15.65L199.74,61l9.31-15.87V67.17L198.44,85.31Zm39,43.85V41.46h14.71V85.31Z"/><path class="cls-8" d="M244.5,78.35h4.31v7H240l-7-6.83V57.94l7-6.83h8.82V58H244.5ZM255,58h-4.39V51.11h8.9l7,6.83V78.48l-7,6.83h-8.9v-7H255Z"/><path class="cls-8" d="M304.85,85.31h-12.2l-20.87-34.2h12.13Zm-33.07,0V54.36l10,16.26V85.31Zm33.07-34.2v31l-10-16.34V51.11Z"/><path class="cls-8" d="M319.21,85.31H308.12l12.31-32.66,5.09,13.59Zm14.33-3.74H322.27l2.39-6.77h6.23l-9.22-23.69h11.19l13.73,34.2H335Z"/><path class="cls-8" d="M361.08,78.48h4.23v6.83h-8.83l-6.9-6.83V51.11h11.5Zm21.78,0L376,85.31h-8.85V78.48h4.25V51.11h11.48Z"/><path class="cls-8" d="M387,51.11h29.91v7.45H387Zm9,9.23H407.9v25H396Z"/></g><path class="cls-9" d="M37.48,82.31H31.62l-8.85-8.76V47.21l8.85-8.75h5.86Zm2.33-35.1V38.46H55.49l8.82,8.75V56H49.6V47.21Zm0,35.1V73.55H49.6V67.14H64.31v6.41l-8.82,8.76Z"/><path class="cls-9" d="M85.07,73.39H90.6v8.92H79.28l-9-8.76V47.21l9-8.75H90.6v8.89H85.07Zm13.48-26H92.93V38.46h11.41l8.92,8.75V73.55l-8.92,8.76H92.93V73.39h5.62Z"/><path class="cls-9" d="M147.35,82.31V65.89H128.24l-8.85-8.79V47.21l8.85-8.75h5V54h20.31l8.55,8.79V73.55l-8.82,8.76Zm-28-13.15H134.1v5.22H145v7.93h-18.2l-7.42-8.76Zm16.17-22.81V38.46h17.68l7.65,7.63v4.66H147.35v-4.4Z"/><path class="cls-9" d="M169.21,82.31V42.52L183,65.42V82.31Zm0-43.85h15.65L196.74,58l9.31-15.87V64.17L195.44,82.31Zm39,43.85V38.46h14.71V82.31Z"/><path class="cls-9" d="M241.5,75.35h4.31v7H237l-7-6.83V54.94l7-6.83h8.82V55H241.5ZM252,55h-4.39V48.11h8.9l7,6.83V75.48l-7,6.83h-8.9v-7H252Z"/><path class="cls-9" d="M301.85,82.31h-12.2l-20.87-34.2h12.13Zm-33.07,0V51.36l10,16.26V82.31Zm33.07-34.2v31l-10-16.34V48.11Z"/><path class="cls-9" d="M316.21,82.31H305.12l12.31-32.66,5.09,13.59Zm14.33-3.74H319.27l2.39-6.77h6.23l-9.22-23.69h11.19l13.73,34.2H332Z"/><path class="cls-9" d="M358.08,75.48h4.23v6.83h-8.83l-6.9-6.83V48.11h11.5Zm21.78,0L373,82.31h-8.85V75.48h4.25V48.11h11.48Z"/><path class="cls-9" d="M384,48.11h29.91v7.45H384Zm9,9.23H404.9v25H393Z"/></g></g></svg>