<svg id="Layer_1" data-name="Layer 1" xmlns="http://www.w3.org/2000/svg" xmlns:xlink="http://www.w3.org/1999/xlink" viewBox="0 0 413.11 120.77"><defs><style>.cls-1{fill:none;}.cls-2{clip-path:url(#clip-path);}.cls-3{fill:url(#linear-gradient);}.cls-4{fill:url(#linear-gradient-2);}.cls-5{fill:#303030;}.cls-6{fill:#fff;}</style><clipPath id="clip-path"><circle class="cls-1" cx="60.38" cy="60.38" r="60.38"/></clipPath><linearGradient id="linear-gradient" x1="1.02" y1="48.29" x2="223.67" y2="48.29" gradientUnits="userSpaceOnUse"><stop offset="0" stop-color="#ee885b"/><stop offset="0.49" stop-color="#5c865e"/><stop offset="0.87" stop-color="#3b526d"/></linearGradient><linearGradient id="linear-gradient-2" x1="78.51" y1="60.38" x2="191.61" y2="60.38" gradientUnits="userSpaceOnUse"><stop offset="0" stop-color="#ee885b"/><stop offset="1"/></linearGradient></defs><g class="cls-2"><path class="cls-3" d="M4.31,122.34H1V-25.76H4.31Zm7.08-148.1H8.1v148.1h3.29Zm7.08,0h-3.3v148.1h3.3Zm7.07,0H22.25v148.1h3.29Zm7.08,0h-3.3v148.1h3.3Zm7.08,0H36.4v148.1h3.3Zm7.07,0H43.48v148.1h3.29Zm7.08,0h-3.3v148.1h3.3Zm7.07,0H57.63v148.1h3.29Zm7.08,0H64.71v148.1H68Zm7.08,0h-3.3v148.1h3.3Zm7.07,0H78.86v148.1h3.29Zm7.08,0h-3.3v148.1h3.3Zm7.07,0H93v148.1H96.3Zm7.08,0h-3.29v148.1h3.29Zm7.08,0h-3.3v148.1h3.3Zm7.07,0h-3.29v148.1h3.29Zm7.08,0h-3.3v148.1h3.3Zm7.07,0h-3.29v148.1h3.29Zm7.08,0h-3.29v148.1h3.29Zm7.08,0h-3.3v148.1h3.3Zm7.07,0h-3.29v148.1h3.29Zm7.08,0H156.7v148.1H160Zm7.08,0h-3.3v148.1h3.3Zm7.07,0h-3.29v148.1h3.29Zm7.08,0h-3.3v148.1h3.3Zm7.07,0H185v148.1h3.29Zm7.08,0h-3.29v148.1h3.29Zm7.08,0h-3.3v148.1h3.3Zm7.07,0h-3.29v148.1h3.29Zm7.08,0h-3.3v148.1h3.3Zm7.07,0h-3.29v148.1h3.29Z"/></g><path class="cls-4" d="M135.06,116.52c-31.18,0-56.55-25.18-56.55-56.14S103.88,4.24,135.06,4.24s56.55,25.19,56.55,56.14S166.24,116.52,135.06,116.52Z"/><path class="cls-5" d="M135.06,6.24c30.08,0,54.55,24.29,54.55,54.14s-24.47,54.14-54.55,54.14S80.51,90.24,80.51,60.38,105,6.24,135.06,6.24m0-4a58.14,58.14,0,1,0,58.55,58.14A58.34,58.34,0,0,0,135.06,2.24Z"/><path class="cls-6" d="M37.45,82.27H31.61l-8.84-8.74V47.24l8.84-8.74h5.84Zm2.33-35V38.5H55.42l8.8,8.74v8.81H49.54V47.24Zm0,35V73.53h9.76v-6.4H64.22v6.4l-8.8,8.74Z"/><path class="cls-6" d="M85,73.36h5.51v8.91H79.17l-8.93-8.74V47.24l8.93-8.74H90.46v8.87H85Zm13.45-26H92.79V38.5h11.39l8.9,8.74V73.53l-8.9,8.74H92.79V73.36H98.4Z"/><path class="cls-6" d="M147.1,82.27V65.88H128L119.2,57.1V47.24L128,38.5h5V54h20.26l8.54,8.78V73.53L153,82.27ZM119.2,69.14h14.68v5.21h10.89v7.92H126.6l-7.4-8.74Zm16.14-22.76V38.5H153l7.64,7.62v4.65H147.1V46.38Z"/><path class="cls-6" d="M168.92,82.27V42.56l13.72,22.85V82.27Zm0-43.77h15.61L196.39,58l9.3-15.83v22l-10.6,18.11Zm38.9,43.77V38.5h14.68V82.27Z"/><path class="cls-6" d="M241.07,75.32h4.3v7h-8.81l-7-6.82V55l7-6.82h8.81v6.92h-4.3Zm10.49-20.27h-4.38V48.13h8.89L263,55v20.5l-6.94,6.82h-8.89v-7h4.38Z"/><path class="cls-6" d="M301.3,82.27H289.12L268.29,48.13h12.1Zm-33,0V51.37l10,16.24V82.27Zm33-34.14V79l-10-16.31V48.13Z"/><path class="cls-6" d="M315.62,82.27H304.56l12.28-32.59,5.08,13.55Zm14.3-3.73H318.68l2.38-6.77h6.22l-9.19-23.64h11.16L343,82.27H331.37Z"/><path class="cls-6" d="M357.41,75.45h4.22v6.82h-8.81l-6.89-6.82V48.13h11.48Zm21.73,0-6.86,6.82h-8.83V75.45h4.24V48.13h11.45Z"/><path class="cls-6" d="M383.26,48.13h29.85v7.44H383.26Zm9,9.21h11.91V82.27H392.23Z"/></svg>