<svg width="108" height="108" viewBox="0 0 108 108" fill="none" xmlns="http://www.w3.org/2000/svg">
<circle cx="54" cy="54" r="51" fill="#579EBD" stroke="black" stroke-width="6"/>
<path d="M51.1178 55.8432L53.9999 53.5952L56.8553 55.8158C57.8961 56.6108 59.3104 55.5965 58.9368 54.308L57.816 50.5795L61.0183 47.9751C62.0057 47.2075 61.4453 45.5626 60.1644 45.5626H56.4283L55.2808 41.889C55.1931 41.6147 55.0233 41.3759 54.7957 41.2067C54.5681 41.0374 54.2942 40.9462 54.0132 40.9462C53.7322 40.9462 53.4584 41.0374 53.2308 41.2067C53.0032 41.3759 52.8334 41.6147 52.7457 41.889L51.5715 45.5626H47.8087C46.5545 45.5626 45.9941 47.2075 46.9815 48.0025L50.1571 50.607L49.0363 54.3354C48.6627 55.6239 50.0771 56.6383 51.1178 55.8432V55.8432ZM37.9883 80.1329C37.9883 81.9972 39.7762 83.3131 41.5108 82.7374L53.9999 78.4606L66.489 82.7374C66.891 82.8782 67.32 82.9181 67.7401 82.8539C68.1602 82.7897 68.5593 82.6233 68.904 82.3684C69.2488 82.1135 69.5292 81.7776 69.7218 81.3887C69.9145 80.9998 70.0138 80.5693 70.0115 80.1329V62.7792C73.4525 58.7862 75.3511 53.637 75.3487 48.3041C75.3487 36.1866 65.7951 26.3721 53.9999 26.3721C42.2047 26.3721 32.6511 36.1866 32.6511 48.3041C32.6511 53.8693 34.6792 58.9137 37.9883 62.7792V80.1329ZM53.9999 31.8551C62.833 31.8551 70.0115 39.2297 70.0115 48.3041C70.0115 57.3785 62.833 64.7531 53.9999 64.7531C45.1668 64.7531 37.9883 57.3785 37.9883 48.3041C37.9883 39.2297 45.1668 31.8551 53.9999 31.8551Z" fill="black"/>
</svg>
