<svg width="22" height="28" viewBox="0 0 22 28" fill="none" xmlns="http://www.w3.org/2000/svg">
<path d="M1.10518 27.81C1.33106 27.9288 1.58519 27.9833 1.83993 27.9678C2.09467 27.9523 2.34028 27.8672 2.55005 27.7219L20.7332 15.1354C20.9185 15.0062 21.0698 14.8341 21.1742 14.6338C21.2787 14.4336 21.3333 14.211 21.3333 13.9852C21.3333 13.7593 21.2787 13.5368 21.1742 13.3365C21.0698 13.1363 20.9185 12.9642 20.7332 12.8349L2.55005 0.248488C2.34021 0.103314 2.09464 0.0183024 1.83994 0.00265888C1.58525 -0.0129847 1.33112 0.0413352 1.10509 0.159737C0.879049 0.27814 0.689717 0.456113 0.557586 0.674385C0.425456 0.892657 0.355564 1.14291 0.355478 1.39805L0.355475 26.5709C0.355433 26.8262 0.425276 27.0766 0.557432 27.295C0.689588 27.5134 0.879014 27.6915 1.10518 27.81ZM3.15289 4.06777L17.4798 13.9845L3.15289 23.9012L3.15289 4.06777Z" fill="white"/>
</svg>
