<svg width="22" height="29" viewBox="0 0 22 29" fill="none" xmlns="http://www.w3.org/2000/svg">
<path d="M20.8355 0.597621C20.6096 0.478841 20.3555 0.42425 20.1007 0.439784C19.846 0.455317 19.6004 0.540381 19.3906 0.685726L1.20744 13.2722C1.02219 13.4014 0.870901 13.5735 0.766437 13.7738C0.661973 13.974 0.607422 14.1965 0.607422 14.4224C0.607422 14.6483 0.661973 14.8708 0.766437 15.0711C0.870901 15.2713 1.02219 15.4434 1.20744 15.5727L19.3906 28.1591C19.6005 28.3043 19.846 28.3893 20.1007 28.4049C20.3554 28.4206 20.6096 28.3663 20.8356 28.2479C21.0616 28.1295 21.251 27.9515 21.3831 27.7332C21.5152 27.5149 21.5851 27.2647 21.5852 27.0095V1.83668C21.5852 1.58141 21.5154 1.33099 21.3832 1.11257C21.2511 0.894153 21.0617 0.716069 20.8355 0.597621ZM18.7878 24.3398L4.46083 14.4231L18.7878 4.50641V24.3398Z" fill="white"/>
</svg>
