<svg width="705" height="465" viewBox="0 0 705 465" fill="none" xmlns="http://www.w3.org/2000/svg">
<rect x="1" y="1" width="703" height="463" rx="44" fill="#FB9D59" stroke="black" stroke-width="2"/>
<rect x="13" y="13" width="679" height="439" rx="31" fill="#303030" stroke="black" stroke-width="6"/>
<path fill-rule="evenodd" clip-rule="evenodd" d="M661 34C655.477 34 651 38.4773 651 44C651 49.5227 655.477 54 661 54C666.523 54 671 49.5227 671 44C671 38.4773 666.523 34 661 34ZM664.37 41.9155C664.536 41.744 664.627 41.5144 664.625 41.276C664.623 41.0376 664.527 40.8096 664.359 40.6411C664.19 40.4725 663.962 40.3769 663.724 40.3748C663.486 40.3728 663.256 40.4644 663.085 40.63L661 42.7145L658.915 40.63C658.832 40.5432 658.731 40.4739 658.62 40.4263C658.509 40.3786 658.39 40.3535 658.269 40.3525C658.149 40.3515 658.029 40.3745 657.917 40.4202C657.806 40.4659 657.704 40.5334 657.619 40.6187C657.533 40.7041 657.466 40.8056 657.42 40.9173C657.374 41.029 657.351 41.1487 657.352 41.2695C657.354 41.3902 657.379 41.5095 657.426 41.6204C657.474 41.7313 657.543 41.8316 657.63 41.9155L659.715 44L657.63 46.0845C657.543 46.1684 657.474 46.2687 657.426 46.3796C657.379 46.4905 657.354 46.6098 657.352 46.7305C657.351 46.8513 657.374 46.971 657.42 47.0827C657.466 47.1944 657.533 47.2959 657.619 47.3813C657.704 47.4666 657.806 47.5341 657.917 47.5798C658.029 47.6255 658.149 47.6486 658.269 47.6475C658.39 47.6465 658.509 47.6214 658.62 47.5737C658.731 47.5261 658.832 47.4568 658.915 47.37L661 45.2855L663.085 47.37C663.256 47.5356 663.486 47.6272 663.724 47.6252C663.962 47.6231 664.19 47.5275 664.359 47.3589C664.527 47.1904 664.623 46.9624 664.625 46.724C664.627 46.4856 664.536 46.256 664.37 46.0845L662.285 44L664.37 41.9155Z" fill="#FF824F"/>
<path fill-rule="evenodd" clip-rule="evenodd" d="M44 34C38.4773 34 34 38.4773 34 44C34 49.5227 38.4773 54 44 54C49.5227 54 54 49.5227 54 44C54 38.4773 49.5227 34 44 34ZM47.37 41.9155C47.5356 41.744 47.6272 41.5144 47.6252 41.276C47.6231 41.0376 47.5275 40.8096 47.3589 40.6411C47.1904 40.4725 46.9624 40.3769 46.724 40.3748C46.4856 40.3728 46.256 40.4644 46.0845 40.63L44 42.7145L41.9155 40.63C41.8316 40.5432 41.7313 40.4739 41.6204 40.4263C41.5095 40.3786 41.3902 40.3535 41.2695 40.3525C41.1487 40.3515 41.029 40.3745 40.9173 40.4202C40.8056 40.4659 40.7041 40.5334 40.6187 40.6187C40.5334 40.7041 40.4659 40.8056 40.4202 40.9173C40.3745 41.029 40.3515 41.1487 40.3525 41.2695C40.3535 41.3902 40.3786 41.5095 40.4263 41.6204C40.4739 41.7313 40.5432 41.8316 40.63 41.9155L42.7145 44L40.63 46.0845C40.5432 46.1684 40.4739 46.2687 40.4263 46.3796C40.3786 46.4905 40.3535 46.6098 40.3525 46.7305C40.3515 46.8513 40.3745 46.971 40.4202 47.0827C40.4659 47.1944 40.5334 47.2959 40.6187 47.3813C40.7041 47.4666 40.8056 47.5341 40.9173 47.5798C41.029 47.6255 41.1487 47.6486 41.2695 47.6475C41.3902 47.6465 41.5095 47.6214 41.6204 47.5737C41.7313 47.5261 41.8316 47.4568 41.9155 47.37L44 45.2855L46.0845 47.37C46.256 47.5356 46.4856 47.6272 46.724 47.6252C46.9624 47.6231 47.1904 47.5275 47.3589 47.3589C47.5275 47.1904 47.6231 46.9624 47.6252 46.724C47.6272 46.4856 47.5356 46.256 47.37 46.0845L45.2855 44L47.37 41.9155Z" fill="#FF824F"/>
<path fill-rule="evenodd" clip-rule="evenodd" d="M661 411C655.477 411 651 415.477 651 421C651 426.523 655.477 431 661 431C666.523 431 671 426.523 671 421C671 415.477 666.523 411 661 411ZM664.37 418.915C664.536 418.744 664.627 418.514 664.625 418.276C664.623 418.038 664.527 417.81 664.359 417.641C664.19 417.473 663.962 417.377 663.724 417.375C663.486 417.373 663.256 417.464 663.085 417.63L661 419.715L658.915 417.63C658.832 417.543 658.731 417.474 658.62 417.426C658.509 417.379 658.39 417.354 658.269 417.352C658.149 417.351 658.029 417.374 657.917 417.42C657.806 417.466 657.704 417.533 657.619 417.619C657.533 417.704 657.466 417.806 657.42 417.917C657.374 418.029 657.351 418.149 657.352 418.269C657.354 418.39 657.379 418.509 657.426 418.62C657.474 418.731 657.543 418.832 657.63 418.915L659.715 421L657.63 423.085C657.543 423.168 657.474 423.269 657.426 423.38C657.379 423.491 657.354 423.61 657.352 423.731C657.351 423.851 657.374 423.971 657.42 424.083C657.466 424.194 657.533 424.296 657.619 424.381C657.704 424.467 657.806 424.534 657.917 424.58C658.029 424.626 658.149 424.649 658.269 424.648C658.39 424.646 658.509 424.621 658.62 424.574C658.731 424.526 658.832 424.457 658.915 424.37L661 422.285L663.085 424.37C663.256 424.536 663.486 424.627 663.724 424.625C663.962 424.623 664.19 424.527 664.359 424.359C664.527 424.19 664.623 423.962 664.625 423.724C664.627 423.486 664.536 423.256 664.37 423.085L662.285 421L664.37 418.915Z" fill="#FF824F"/>
<path fill-rule="evenodd" clip-rule="evenodd" d="M44 411C38.4773 411 34 415.477 34 421C34 426.523 38.4773 431 44 431C49.5227 431 54 426.523 54 421C54 415.477 49.5227 411 44 411ZM47.37 418.915C47.5356 418.744 47.6272 418.514 47.6252 418.276C47.6231 418.038 47.5275 417.81 47.3589 417.641C47.1904 417.473 46.9624 417.377 46.724 417.375C46.4856 417.373 46.256 417.464 46.0845 417.63L44 419.715L41.9155 417.63C41.8316 417.543 41.7313 417.474 41.6204 417.426C41.5095 417.379 41.3902 417.354 41.2695 417.352C41.1487 417.351 41.029 417.374 40.9173 417.42C40.8056 417.466 40.7041 417.533 40.6187 417.619C40.5334 417.704 40.4659 417.806 40.4202 417.917C40.3745 418.029 40.3515 418.149 40.3525 418.269C40.3535 418.39 40.3786 418.509 40.4263 418.62C40.4739 418.731 40.5432 418.832 40.63 418.915L42.7145 421L40.63 423.085C40.5432 423.168 40.4739 423.269 40.4263 423.38C40.3786 423.491 40.3535 423.61 40.3525 423.731C40.3515 423.851 40.3745 423.971 40.4202 424.083C40.4659 424.194 40.5334 424.296 40.6187 424.381C40.7041 424.467 40.8056 424.534 40.9173 424.58C41.029 424.626 41.1487 424.649 41.2695 424.648C41.3902 424.646 41.5095 424.621 41.6204 424.574C41.7313 424.526 41.8316 424.457 41.9155 424.37L44 422.285L46.0845 424.37C46.256 424.536 46.4856 424.627 46.724 424.625C46.9624 424.623 47.1904 424.527 47.3589 424.359C47.5275 424.19 47.6231 423.962 47.6252 423.724C47.6272 423.486 47.5356 423.256 47.37 423.085L45.2855 421L47.37 418.915Z" fill="#FF824F"/>
</svg>
