<svg id="Layer_1" data-name="Layer 1" xmlns="http://www.w3.org/2000/svg" viewBox="0 0 53.15 51.84"><defs><style>.cls-1{fill:#191717;fill-rule:evenodd;}</style></defs><path class="cls-1" d="M26.57,0a26.58,26.58,0,0,0-8.39,51.8C19.5,52,20,51.22,20,50.51s0-2.3,0-4.52C12.56,47.6,11,42.43,11,42.43c-1.21-3.07-2.95-3.89-2.95-3.89-2.41-1.65.18-1.61.18-1.61a5.58,5.58,0,0,1,4.07,2.74c2.37,4.06,6.22,2.89,7.74,2.21a5.7,5.7,0,0,1,1.69-3.56c-5.91-.67-12.11-3-12.11-13.13a10.26,10.26,0,0,1,2.74-7.13,9.52,9.52,0,0,1,.26-7s2.23-.71,7.3,2.73a25.06,25.06,0,0,1,13.31,0c5.08-3.44,7.3-2.73,7.3-2.73a9.6,9.6,0,0,1,.27,7,10.25,10.25,0,0,1,2.73,7.13c0,10.21-6.21,12.45-12.14,13.11a6.32,6.32,0,0,1,1.81,4.92c0,3.56,0,6.42,0,7.29,0,.71.48,1.54,1.82,1.28A26.58,26.58,0,0,0,26.57,0Z"/></svg>