<svg width="109" height="108" viewBox="0 0 109 108" fill="none" xmlns="http://www.w3.org/2000/svg">
<circle cx="54.7174" cy="54" r="51" fill="#FF824F" stroke="black" stroke-width="6"/>
<path d="M82.0533 27.1212C82.0308 27.0121 81.9776 26.9117 81.9001 26.8317C81.8226 26.7518 81.7238 26.6956 81.6155 26.6697C74.3916 24.9035 57.7003 31.1975 48.6572 40.2369C47.0443 41.8367 45.5739 43.5742 44.2627 45.4294C41.474 45.1827 38.6854 45.3887 36.3087 46.4247C29.6028 49.3762 27.6504 57.0774 27.1064 60.3902C27.0756 60.5715 27.0872 60.7576 27.1404 60.9336C27.1937 61.1097 27.287 61.271 27.4131 61.4049C27.5392 61.5388 27.6947 61.6416 27.8673 61.7052C28.0398 61.7688 28.2248 61.7916 28.4077 61.7716L39.1763 60.5839C39.1839 61.3957 39.2329 62.2067 39.323 63.0136C39.3772 63.574 39.626 64.0976 40.0261 64.4937L44.1961 68.6538C44.5925 69.0534 45.116 69.3021 45.6761 69.3569C46.4785 69.4466 47.285 69.4956 48.0923 69.5036L46.9108 80.2587C46.891 80.4414 46.9139 80.6263 46.9777 80.7988C47.0414 80.9712 47.1442 81.1266 47.278 81.2526C47.4118 81.3787 47.573 81.472 47.749 81.5253C47.9249 81.5786 48.1109 81.5905 48.2921 81.5599C51.5988 81.0295 59.3136 79.0771 62.2478 72.3712C63.2838 69.9945 63.496 67.2194 63.2567 64.4443C65.1164 63.133 66.8583 61.6622 68.4628 60.0486C77.5342 51.0227 83.7924 34.7039 82.0533 27.1212ZM59.4122 49.2812C58.5839 48.4534 58.0197 47.3985 57.7909 46.25C57.5622 45.1015 57.6792 43.911 58.1272 42.829C58.5751 41.747 59.3339 40.8221 60.3076 40.1714C61.2813 39.5207 62.426 39.1734 63.5971 39.1734C64.7682 39.1734 65.9129 39.5207 66.8866 40.1714C67.8602 40.8221 68.619 41.747 69.067 42.829C69.515 43.911 69.632 45.1015 69.4033 46.25C69.1745 47.3985 68.6103 48.4534 67.7819 49.2812C67.2327 49.8313 66.5803 50.2677 65.8622 50.5654C65.1442 50.8631 64.3744 51.0164 63.5971 51.0164C62.8197 51.0164 62.05 50.8631 61.3319 50.5654C60.6139 50.2677 59.9615 49.8313 59.4122 49.2812Z" fill="black"/>
<path d="M43.9125 71.6671C43.2366 72.3442 42.1525 72.6081 40.8476 72.8338C37.9159 73.3333 35.327 70.8 35.8536 67.8362C36.0547 66.7126 36.6492 65.1376 37.0192 64.7676C37.1001 64.6882 37.1539 64.5855 37.173 64.4738C37.1922 64.3622 37.1757 64.2473 37.1258 64.1456C37.076 64.0439 36.9954 63.9604 36.8954 63.9071C36.7955 63.8538 36.6812 63.8334 36.569 63.8487C34.9296 64.0493 33.4043 64.7926 32.2362 65.9602C29.3365 68.8624 29.0627 79.631 29.0627 79.631C29.0627 79.631 39.8375 79.3571 42.7371 76.455C43.9084 75.2878 44.6526 73.7602 44.8499 72.1185C44.8955 71.6029 44.2677 71.2958 43.9125 71.6671V71.6671Z" fill="black"/>
</svg>
