<svg id="Layer_1" data-name="Layer 1" xmlns="http://www.w3.org/2000/svg" xmlns:xlink="http://www.w3.org/1999/xlink" viewBox="0 0 413.11 120.77"><defs><style>.cls-1{fill:none;}.cls-2{clip-path:url(#clip-path);}.cls-3{fill:url(#linear-gradient);}.cls-4{fill:url(#linear-gradient-2);}.cls-5{fill:#303030;}.cls-6{fill:#fff;}</style><clipPath id="clip-path"><circle class="cls-1" cx="60.38" cy="60.38" r="60.38"/></clipPath><linearGradient id="linear-gradient" x1="1.02" y1="48.29" x2="223.67" y2="48.29" gradientUnits="userSpaceOnUse"><stop offset="0" stop-color="#ee885b"/><stop offset="0.49" stop-color="#5c865e"/><stop offset="0.87" stop-color="#3b526d"/></linearGradient><linearGradient id="linear-gradient-2" x1="78.51" y1="60.38" x2="191.61" y2="60.38" gradientUnits="userSpaceOnUse"><stop offset="0" stop-color="#ee885b"/><stop offset="1"/></linearGradient></defs><g class="cls-2"><path class="cls-3" d="M4.31,122.34H1V-25.76H4.31Zm7.08-148.1H8.1v148.1h3.29Zm7.08,0h-3.3v148.1h3.3Zm7.07,0H22.25v148.1h3.29Zm7.08,0h-3.3v148.1h3.3Zm7.08,0H36.4v148.1h3.3Zm7.07,0H43.48v148.1h3.29Zm7.08,0h-3.3v148.1h3.3Zm7.07,0H57.63v148.1h3.29Zm7.08,0H64.71v148.1H68Zm7.08,0h-3.3v148.1h3.3Zm7.07,0H78.86v148.1h3.29Zm7.08,0h-3.3v148.1h3.3Zm7.07,0H93v148.1H96.3Zm7.08,0h-3.29v148.1h3.29Zm7.08,0h-3.3v148.1h3.3Zm7.07,0h-3.29v148.1h3.29Zm7.08,0h-3.3v148.1h3.3Zm7.07,0h-3.29v148.1h3.29Zm7.08,0h-3.29v148.1h3.29Zm7.08,0h-3.3v148.1h3.3Zm7.07,0h-3.29v148.1h3.29Zm7.08,0H156.7v148.1H160Zm7.08,0h-3.3v148.1h3.3Zm7.07,0h-3.29v148.1h3.29Zm7.08,0h-3.3v148.1h3.3Zm7.07,0H185v148.1h3.29Zm7.08,0h-3.29v148.1h3.29Zm7.08,0h-3.3v148.1h3.3Zm7.07,0h-3.29v148.1h3.29Zm7.08,0h-3.3v148.1h3.3Zm7.07,0h-3.29v148.1h3.29Z"/></g><path class="cls-4" d="M135.06,116.52c-31.18,0-56.55-25.18-56.55-56.14S103.88,4.24,135.06,4.24s56.55,25.19,56.55,56.14S166.24,116.52,135.06,116.52Z"/><path class="cls-5" d="M135.06,6.24c30.08,0,54.55,24.29,54.55,54.14s-24.47,54.14-54.55,54.14S80.51,90.24,80.51,60.38,105,6.24,135.06,6.24m0-4a58.14,58.14,0,1,0,58.55,58.14A58.34,58.34,0,0,0,135.06,2.24Z"/><path class="cls-6" d="M38.3,79.59H33.17l-7.75-7.67V48.85l7.75-7.67H38.3Zm2-30.74V41.18H54.07l7.73,7.67v7.73H48.91V48.85Zm0,30.74V71.92h8.57V66.3H61.8v5.62l-7.73,7.67Z"/><path class="cls-6" d="M80,71.77h4.84v7.82H74.91l-7.84-7.67V48.85l7.84-7.67h9.91V49H80ZM91.79,49H86.86V41.18h10l7.81,7.67V71.92l-7.81,7.67h-10V71.77h4.93Z"/><path class="cls-6" d="M134.52,79.59V65.2H117.79L110,57.5V48.85l7.76-7.67h4.37V54.81h17.78l7.49,7.7v9.41l-7.72,7.67ZM110,68.07h12.89v4.57h9.56v7H116.53L110,71.92Zm14.17-20V41.18h15.48l6.7,6.69V52H134.52V48.1Z"/><path class="cls-6" d="M153.67,79.59V44.74l12,20.06V79.59Zm0-38.41h13.7l10.37,17.08,8.16-13.9V63.7l-9.29,15.89Zm34.13,38.41V41.18h12.88V79.59Z"/><path class="cls-6" d="M219.54,71.77h4.84v7.82h-9.91l-7.84-7.67V48.85l7.84-7.67h9.91V49h-4.84ZM231.35,49h-4.93V41.18h10l7.81,7.67V71.92l-7.81,7.67h-10V71.77h4.93Z"/><path class="cls-6" d="M287.31,79.59h-13.7L250.17,41.18h13.62Zm-37.14,0V44.83L261.4,63.09v16.5Zm37.14-38.41V75.94L276.09,57.59V41.18Z"/><path class="cls-6" d="M303.43,79.59H291L304.8,42.92l5.71,15.25Zm16.09-4.2H306.87l2.68-7.61h7L306.2,41.18h12.56l15.42,38.41h-13Z"/><path class="cls-6" d="M350.44,71.92h4.75v7.67h-9.91l-7.75-7.67V41.18h12.91Zm24.45,0-7.72,7.67h-9.94V71.92H362V41.18h12.88Z"/><path class="cls-6" d="M379.53,41.18h33.58v8.37H379.53Zm10.08,10.36H403V79.59H389.61Z"/></svg>